<svg xmlns="http://www.w3.org/2000/svg" width="58pt" height="108" viewBox="0 0 58 81"><path d="M57.957 15.918l-5.281 58.566L28.94 81 5.273 74.496 0 15.918zm0 0" fill="#264de4"/><path d="M48.156 70.754l4.512-50.047H28.98V76.02zm0 0" fill="#2965f1"/><path d="M12.09 42.434l.652 7.183H28.98v-7.183zM28.98 27.89H10.785l.66 7.184H28.98zm0 40.676V61.09l-.035.008-8.078-2.16-.515-5.731h-7.286l1.016 11.281 14.863 4.086zm0 0" fill="#ebebeb"/><path d="M13.64 0h8.79v3.637h-5.114v3.64h5.114v3.637h-8.79zm10.544 0h8.789v3.164h-5.114v.633h5.114v7.277h-8.79V7.75h5.114v-.633h-5.113zM34.73 0h8.79v3.164h-5.114v.633h5.114v7.277h-8.79V7.75h5.114v-.633H34.73zm0 0"/><path d="M37.887 49.617l-.84 9.317-8.094 2.164v7.472l14.875-4.082.11-1.215 1.703-18.91.18-1.93 1.308-14.542H28.953v7.183h10.223l-.66 7.36h-9.563v7.183zm0 0" fill="#fff"/></svg>