<svg xmlns="http://www.w3.org/2000/svg" width="110pt" height="46pt" viewBox="0 0 110 46"><path d="M65.922 15.656c-2.41 0-4.207 1.188-4.207 4.04 0 2.152 1.183 3.644 4.078 3.644 2.453 0 4.117-1.45 4.117-3.73 0-2.59-1.488-3.954-3.988-3.954zm-4.82 20.153c-.575.699-1.141 1.445-1.141 2.324 0 1.754 2.234 2.281 5.3 2.281 2.544 0 6.009-.176 6.009-2.543 0-1.41-1.668-1.496-3.774-1.629zm12.972-20.02c.785 1.012 1.621 2.414 1.621 4.434 0 4.87-3.812 7.726-9.336 7.726-1.402 0-2.675-.176-3.46-.394l-1.45 2.324 4.297.266c7.582.48 12.05.703 12.05 6.539 0 5.046-4.425 7.898-12.05 7.898-7.933 0-10.957-2.02-10.957-5.484 0-1.977.875-3.028 2.41-4.48-1.449-.61-1.93-1.708-1.93-2.895 0-.965.481-1.844 1.274-2.676.789-.836 1.664-1.668 2.715-2.637-2.145-1.05-3.77-3.336-3.77-6.582 0-5.047 3.332-8.515 10.04-8.515 1.882 0 3.023.175 4.03.44h8.547v3.731l-4.03.305M85.82 7.813c-2.496 0-3.945-1.45-3.945-3.954C81.875 1.363 83.325 0 85.82 0c2.543 0 3.989 1.363 3.989 3.86 0 2.503-1.446 3.953-3.989 3.953zM80.168 34.19v-3.464l2.234-.309c.614-.09.703-.219.703-.879V16.637c0-.485-.132-.793-.574-.922l-2.363-.836.48-3.555h9.075V29.54c0 .703.043.793.699.879l2.238.309v3.464H80.168m29.824-1.704c-1.887.922-4.648 1.758-7.148 1.758-5.215 0-7.188-2.105-7.188-7.066v-11.5c0-.262 0-.442-.351-.442h-3.067v-3.906c3.86-.437 5.39-2.371 5.875-7.156h4.164v6.238c0 .305 0 .438.352.438h6.18v4.386h-6.532V25.73c0 2.59.614 3.598 2.98 3.598 1.227 0 2.497-.305 3.552-.703l1.183 3.867" fill="#413000"/><path d="M45.047 20.973L25.007.903a2.952 2.952 0 00-4.179 0L16.664 5.07l5.281 5.285a3.502 3.502 0 013.61.844 3.527 3.527 0 01.836 3.64l5.086 5.095a3.506 3.506 0 013.632.836 3.522 3.522 0 010 4.98 3.506 3.506 0 01-4.972 0 3.525 3.525 0 01-.766-3.832l-4.746-4.75v12.504a3.522 3.522 0 01.93 5.648 3.513 3.513 0 01-4.973 0 3.522 3.522 0 011.152-5.75V16.95a3.43 3.43 0 01-1.152-.77 3.514 3.514 0 01-.758-3.848l-5.203-5.215L.88 20.88a2.961 2.961 0 000 4.187l20.039 20.067a2.956 2.956 0 004.184 0L45.047 25.16a2.961 2.961 0 000-4.187" fill="#f05133"/></svg>