<svg xmlns="http://www.w3.org/2000/svg" width="50pt" height="110pt" viewBox="0 0 50 110"><g fill-rule="evenodd" fill="#da4648"><path d="M24.777 86.617c-6.449 0-11.433-.96-13.832-1.539-1.636-.39-2.953-.797-3.953-1.215l3.196 5.434 1.25 16.973c0 1.902 6.078 3.445 13.574 3.445 7.496 0 13.57-1.543 13.57-3.445l.992-17.16 3.024-5.262c-1.004.422-2.332.836-3.993 1.23-2.394.578-7.378 1.54-13.828 1.54zm17.926-55.234c-4.734.656-11.02 1.02-17.691 1.02-6.676 0-12.957-.364-17.692-1.02-2.343-.324-4.199-.711-5.511-1.14-.317-.106-.848-.282-1.356-.56l2.93 26.852c.137-.46.289-.926.457-1.387a26.13 26.13 0 011.195-2.765c.453-.899.945-1.75 1.477-2.551.531-.8 1.097-1.539 1.699-2.215a13.634 13.634 0 011.848-1.742 8.866 8.866 0 011.918-1.137 4.868 4.868 0 011.914-.41c.726 0 1.433.2 2.113.594.68.394 1.316 1.039 1.91 1.926.133.195.219.398.258.597.035.203.05.395.05.575 0 .425-.1.761-.304 1.003-.203.247-.445.368-.727.368-.257 0-.492-.133-.714-.403-.22-.27-.465-.652-.739-1.152-.254-.453-.539-.781-.847-.984a1.772 1.772 0 00-1-.305c-.563 0-1.16.234-1.797.695-.637.461-1.266 1.074-1.89 1.832a19.678 19.678 0 00-1.794 2.602 27.017 27.017 0 00-1.52 3 21.48 21.48 0 00-1.05 3.027c-.262.996-.39 1.89-.39 2.684 0 .261.019.535.054.812.035.278.105.531.203.758.102.227.238.41.41.559.172.144.39.218.653.218.296 0 .632-.101 1.007-.297.38-.199.77-.457 1.172-.777a15.58 15.58 0 001.219-1.09 19.44 19.44 0 002.078-2.425 7.32 7.32 0 00.613-1l1.114-3.325c.136-.36.316-.613.535-.761.219-.153.445-.227.68-.227.109 0 .222.016.335.055a.891.891 0 01.301.175.858.858 0 01.207.313c.055.129.078.277.078.445 0 .453-.039.88-.117 1.274a10.33 10.33 0 01-.308 1.16c-.121.379-.262.758-.414 1.14-.153.38-.301.778-.442 1.196-.035.047-.09.195-.176.445s-.187.563-.304.942c-.121.375-.25.796-.391 1.265-.14.465-.285.942-.434 1.426-.148.488-.289.965-.425 1.43-.137.468-.258.89-.368 1.27a101.312 101.312 0 01-.402 1.398c-.039.152-.101.32-.191.504a3.25 3.25 0 01-.313.523c-.12.164-.25.3-.394.41a.75.75 0 01-.446.16c-.257 0-.441-.082-.558-.254-.117-.168-.172-.48-.172-.933v-.2c0-.066.004-.136.012-.21.007-.153.066-.434.18-.848.109-.418.245-.887.402-1.41.156-.524.324-1.067.504-1.625.18-.563.34-1.063.484-1.508a23.28 23.28 0 01-1.379 1.41c-.496.465-1.004.883-1.527 1.258a9.003 9.003 0 01-1.57.91c-.528.238-1.04.356-1.528.356-.559 0-1.039-.121-1.445-.368a4.015 4.015 0 01-.211-.144L5.809 81.82c.425 1.059 8.421 3.66 18.968 3.66 10.551 0 18.551-2.605 18.97-3.664l2.343-20.238c-.192.18-.383.352-.563.52a25.46 25.46 0 01-1.902 1.605c-.598.45-1.18.793-1.746 1.04a4.58 4.58 0 01-1.828.366c-.606 0-1.078-.132-1.41-.394-.332-.266-.496-.63-.496-1.09v-.105a.74.74 0 01.011-.122c.032-.28.157-.609.371-.976.215-.367.477-.75.782-1.145.304-.398.629-.797.972-1.203.344-.406.66-.789.953-1.152.293-.363.536-.695.727-1 .191-.3.289-.547.289-.734a.327.327 0 00-.121-.27c-.078-.066-.211-.098-.395-.098-.32 0-.652.082-.992.246a4.93 4.93 0 00-1.008.664 9.32 9.32 0 00-.972.958 14.307 14.307 0 00-1.645 2.285c-.23.39-.422.75-.582 1.082-.05.105-.117.25-.207.437-.086.188-.183.403-.285.637-.105.238-.215.48-.332.73-.117.25-.223.485-.316.707-.098.223-.184.418-.258.594a17.75 17.75 0 01-.164.36c-.04.085-.106.246-.2.48l-.316.828-.379 1c-.133.348-.254.676-.371.988l-.305.82c-.09.235-.144.4-.172.481a4.787 4.787 0 01-.28.695 2.856 2.856 0 01-.372.575c-.14.164-.3.297-.48.394a1.25 1.25 0 01-.606.149c-.289 0-.527-.07-.715-.207-.187-.137-.28-.399-.28-.785 0-.188.023-.38.07-.579.046-.199.109-.394.18-.586.073-.195.148-.382.222-.566.078-.184.148-.363.21-.531.434-.942.872-1.89 1.321-2.836a116.75 116.75 0 001.54-3.39c-.024.023-.052.046-.075.07-.52.5-1.04.94-1.555 1.324a8.183 8.183 0 01-1.535.914c-.512.226-1.004.34-1.484.34-.328 0-.602-.055-.825-.157a1.39 1.39 0 01-.527-.425 1.66 1.66 0 01-.281-.637c-.02-.082-.031-.172-.043-.258a9.19 9.19 0 01-.426.316 8.584 8.584 0 01-1.465.84c-.48.211-.914.32-1.297.32-.382 0-.695-.128-.937-.382-.238-.254-.36-.688-.36-1.3 0-.435.067-.942.192-1.517a7.83 7.83 0 01-.777 1.118 6.896 6.896 0 01-1.07 1.035 5.371 5.371 0 01-1.345.754 4.397 4.397 0 01-1.62.293c-.266 0-.52-.035-.762-.102a1.6 1.6 0 01-.645-.34 1.74 1.74 0 01-.445-.64c-.11-.27-.168-.61-.168-1.012 0-.012.02-.156.05-.434.032-.277.133-.715.305-1.316.172-.598.438-1.375.797-2.328.363-.95.871-2.106 1.528-3.465.168-.36.363-.613.582-.77a1.204 1.204 0 011.062-.183 1.013 1.013 0 01.59.422c.062.11.094.234.094.375a.999.999 0 01-.035.27c-.04.16-.125.37-.258.628-.133.262-.285.559-.465.89-.176.337-.36.7-.555 1.087-.2.386-.379.785-.547 1.199-.168.418-.312.84-.433 1.27a5.311 5.311 0 00-.203 1.25.93.93 0 00.12.468c.079.14.212.211.395.211.52 0 1.016-.172 1.488-.508.473-.34.91-.761 1.31-1.27a12.01 12.01 0 001.085-1.624c.324-.582.594-1.11.813-1.594a8.21 8.21 0 00.402-1.031c.113-.367.242-.707.379-1.02.133-.308.289-.57.465-.777a.836.836 0 01.66-.313c.289 0 .52.11.687.329.168.214.25.476.25.777 0 .168-.054.402-.16.7-.11.296-.246.636-.41 1.019-.164.382-.34.789-.535 1.222a21.76 21.76 0 00-.531 1.325 13.25 13.25 0 00-.41 1.316c-.11.43-.16.828-.16 1.195 0 .34.175.508.527.508.246 0 .554-.086.925-.254.368-.172.754-.41 1.157-.715.101-.078.203-.156.304-.242.114-.46.246-.89.399-1.277.281-.739.562-1.469.851-2.196.29-.726.555-1.39.793-1.992l3.637-9.125c.145-.37.34-.629.582-.781.246-.148.492-.227.742-.227.246 0 .473.082.676.243.203.16.309.418.309.777 0 .172-.036.352-.106.539-.066.188-.152.39-.258.61-.199.44-.437.984-.715 1.624-.273.641-.57 1.34-.886 2.094-.317.754-.64 1.54-.973 2.356a929.36 929.36 0 01-.973 2.382c-.316.774-.613 1.508-.886 2.204-.278.691-.516 1.293-.715 1.8-.09.22-.176.473-.258.758a2.75 2.75 0 00-.129.774c0 .14.027.254.074.336.047.085.141.128.278.128.168 0 .375-.058.629-.175.25-.118.523-.274.816-.47.293-.19.598-.413.91-.663a26.43 26.43 0 001.84-1.586c.281-.266.54-.516.762-.742a.578.578 0 01.183-.121c.137-.403.258-.793.367-1.18.067-.168.153-.41.266-.723.113-.308.238-.617.383-.918.144-.3.309-.562.488-.785.18-.222.375-.332.582-.332.32 0 .551.074.696.219.144.144.214.36.214.644 0 .055-.007.145-.023.27a9.464 9.464 0 01-.137.777 1.793 1.793 0 01-.078.27c.297-.324.617-.64.961-.957.344-.317.7-.602 1.066-.856.372-.254.747-.46 1.13-.62a2.99 2.99 0 011.152-.243c.265 0 .527.04.789.113.258.075.492.188.695.332.203.149.371.332.5.551.125.223.191.48.191.774 0 .386-.097.796-.296 1.238a8.804 8.804 0 01-.739 1.32c-.293.445-.613.875-.957 1.297-.347.418-.668.8-.968 1.145-.301.343-.551.636-.758.878-.203.239-.309.403-.317.489 0 .113.035.203.11.273.07.07.191.106.36.106.136 0 .335-.075.6-.227.262-.148.633-.41 1.11-.785a49.572 49.572 0 001.813-1.5c.503-.43 1.09-.941 1.753-1.523l3.176-29.258c-.511.28-1.043.457-1.36.562-1.312.43-3.167.817-5.51 1.14zm-17.71-6.942c-13.727 0-24.856 1.528-24.856 3.41 0 1.883 11.129 3.41 24.855 3.41 13.73 0 24.86-1.527 24.86-3.41 0-1.882-11.13-3.41-24.86-3.41zm9.925 4.407c0 .445-1.324.8-2.953.8-1.633 0-2.957-.355-2.957-.8 0-.442 1.324-.801 2.957-.801 1.629 0 2.953.36 2.953.8zm0 0"/><path d="M29.61 28.496a.126.126 0 00-.024.07c0 .286 1.062.52 2.379.52 1.312 0 2.375-.234 2.375-.52l3.11-12.527L49.8 3.062l.013-.011c.261-.293-.27-1.203-1.153-1.985-.879-.78-1.828-1.046-2.125-.75a.008.008 0 01-.008.008L33.352 14.121zm0 0"/></g></svg>