<svg xmlns="http://www.w3.org/2000/svg" width="82pt" height="82pt" viewBox="0 0 82 82"><path d="M17.36 0h3.683v3.652h3.398V0h3.684v11.05h-3.684V7.368h-3.363v3.684H17.36m15.633-7.367h-3.25V0h10.2v3.684h-3.266v7.367h-3.684M41.562 0h3.86l2.367 3.89L50.16 0h3.86v11.05h-3.684V5.575l-2.578 3.973-2.578-3.973v5.477h-3.621M55.848 0h3.683v7.398h5.219v3.653h-8.902"/><path d="M17.234 75.434l-5.285-59.32h58.102l-5.285 59.288L40.953 82" fill="#e44d26"/><path d="M41 76.953V20.98h23.75l-4.531 50.61" fill="#f16529"/><path d="M22.742 28.234H41v7.274H30.719l.672 7.445H41v7.258H24.727m.32 3.648h7.305l.511 5.817L41 61.852v7.593l-14.926-4.164" fill="#ebebeb"/><path d="M59.195 28.234H40.97v7.274h17.55m-.656 7.445H40.97v7.274h8.968l-.851 9.449-8.117 2.176v7.558l14.894-4.129" fill="#fff"/></svg>