<svg xmlns="http://www.w3.org/2000/svg" width="110pt" height="110pt" viewBox="0 0 110 110"><path d="M23.855 17.55c-6.32 9.079-5.53 20.891-.707 30.54l.356.687.226.434.141.25.25.453c.149.262.305.523.461.79l.262.433c.176.277.355.558.535.836l.23.351c.25.375.508.75.774 1.117l.023.028.13.176c.23.316.464.628.706.94l.266.337c.21.27.43.535.652.805l.246.296c.297.348.602.696.91 1.04l.055.054c.3.332.61.653.922.977l.297.297c.242.242.488.484.734.722l.305.285c.332.313.668.622 1.008.922l.015.012.176.152c.305.262.61.52.918.774l.383.304c.25.2.508.403.762.598l.41.309c.285.21.57.414.86.617l.312.223.086.062c.273.188.554.367.836.55l.359.24c.43.273.867.542 1.305.8l.363.203c.324.188.648.371.976.55l.543.278.704.367.16.079.289.136c.367.176.734.348 1.11.516l.233.105c.43.188.86.368 1.297.54l.317.124c.402.157.812.309 1.222.454l.153.05c.453.16.906.305 1.363.45l.332.097c.465.14.926.305 1.406.395 30.555 5.574 39.43-18.36 39.43-18.36C81.5 60.656 68.27 63.22 55.734 60.367c-.472-.11-.933-.258-1.398-.39l-.348-.11a31.887 31.887 0 01-1.347-.437l-.184-.067a35.51 35.51 0 01-1.187-.441l-.336-.129c-.43-.172-.86-.348-1.282-.535l-.257-.113a38.699 38.699 0 01-1.083-.504L48 57.492a33.587 33.587 0 01-.836-.426l-.559-.293a27.5 27.5 0 01-1-.562l-.34-.188a55.75 55.75 0 01-1.308-.8l-.352-.235a47.884 47.884 0 01-.93-.617l-.296-.21a35.99 35.99 0 01-.879-.638l-.39-.293c-.266-.203-.532-.41-.794-.62l-.351-.282c-.332-.273-.664-.55-.988-.832l-.11-.09c-.351-.308-.695-.629-1.035-.945l-.293-.281a33.073 33.073 0 01-.746-.73l-.293-.294a34.5 34.5 0 01-.914-.968l-.047-.047c-.316-.348-.625-.7-.926-1.059l-.246-.289c-.226-.27-.449-.547-.668-.824l-.242-.305c-.266-.344-.52-.684-.773-1.027-6.961-9.496-9.461-22.586-3.899-33.34m14.68-1.399c-4.567 6.575-4.32 15.38-.754 22.329a28.125 28.125 0 002.02 3.375c.683.98 1.44 2.148 2.351 2.937.328.363.672.715 1.023 1.063l.27.27c.344.327.691.655 1.047.972l.043.035.012.012c.398.347.808.68 1.222 1.011l.278.215c.418.32.843.637 1.28.938l.036.027.586.383.277.183c.313.2.625.395.95.582l.132.079c.278.16.555.316.836.468l.301.153.586.304.086.043c.406.196.808.387 1.226.57l.27.11c.332.14.664.277 1.004.406l.43.16c.304.114.609.215.918.32l.417.134c.438.136.876.308 1.333.382 23.59 3.91 29.035-14.254 29.035-14.254-4.91 7.07-14.418 10.446-24.563 7.813a37.53 37.53 0 01-1.336-.387l-.402-.129a23.97 23.97 0 01-.934-.324l-.422-.156c-.34-.129-.671-.266-1.003-.406l-.274-.114a35.197 35.197 0 01-1.23-.574l-.618-.312-.355-.184a21.6 21.6 0 01-.781-.441l-.188-.106a34.007 34.007 0 01-.945-.578l-.285-.191-.61-.403a30.48 30.48 0 01-1.277-.933l-.285-.227c-4.442-3.508-7.961-8.297-9.633-13.73-1.754-5.637-1.379-11.961 1.66-17.094m12.762-.445C57.266 8.148 57 13.07 58.87 17.449c1.969 4.645 6.008 8.29 10.723 10.02l.586.203.257.082c.278.086.555.187.84.242 13.028 2.516 16.559-6.683 17.5-8.039-3.097 4.457-8.297 5.523-14.68 3.977a16.024 16.024 0 01-1.542-.477 19.683 19.683 0 01-1.832-.762 19.268 19.268 0 01-3.215-1.96c-5.711-4.337-9.258-12.598-5.531-19.333" fill="#0868ac"/><path d="M57.027 82.754h-3.632c-.2 0-.399.16-.442.36l-1.289 5.96-1.289 5.965a.479.479 0 01-.445.36h-2.57c-2.544 0-2.25-1.758-1.727-4.169l.015-.074.055-.304.012-.055.113-.621.125-.66.133-.676 1.172-5.727c.043-.199-.09-.36-.293-.36h-3.727a.475.475 0 00-.441.36l-1.602 7.602-.004.008-.07.351c-.926 4.215-.68 8.235 4.336 8.36l.148.004h7.872c.203 0 .402-.16.445-.36l1.7-7.98 1.694-7.985c.043-.199-.086-.36-.289-.36zm-38.89-.043h-3.989a.483.483 0 00-.449.36l-.379 1.667-.375 1.668c-.047.196.082.36.285.36h4.02c.2 0 .402-.164.445-.36l.364-1.668.367-1.668c.039-.199-.09-.36-.29-.36zm-1.157 5.195h-4.02a.48.48 0 00-.448.356l-.567 2.504-.562 2.5-.156.714-.543 2.551-.543 2.555c-.04.195-.13.516-.192.707 0 0-.75 2.234-2.015 2.207l-.157-.004-1.093-.02a.48.48 0 00-.45.352l-.418 1.75-.414 1.754c-.047.195.078.356.278.36.718.007 2.32.027 3.293.027 3.152 0 4.812-1.746 5.879-6.774l1.246-5.773 1.172-5.41c.039-.196-.09-.356-.29-.356zm74.004-1.351l-.164-.692-.164-.703-.086-.355c-.324-1.27-1.285-2-3.367-2l-3.238-.004-2.985-.004h-3.355a.476.476 0 00-.445.355l-.149.703-.176.829-.046.234-1.512 7.078-1.434 6.723c-.043.199-.058.441-.035.539.024.097.414.18.613.18h3.028c.203 0 .457-.036.57-.083.11-.043.27-.44.313-.636l.535-2.664.539-2.664.004-.004.07-.356.652-3.058.578-2.703a.475.475 0 01.442-.356l9.531-.004c.2 0 .328-.16.281-.355zm12.27-6.223h-3.785a.775.775 0 00-.574.305l-6.743 9.883c-.113.164-.246.14-.289-.055l-.496-2.176a.483.483 0 00-.449-.36h-4.336c-.203 0-.32.16-.266.352l1.942 6.809c.055.195.058.512.012.707l-.848 3.293c-.05.195.074.355.273.355h4.285c.204 0 .41-.16.461-.355l.844-3.293c.05-.195.192-.488.313-.649l10.953-14.53c.12-.165.054-.294-.149-.294zm-34.45 8.523v-.003a.443.443 0 01-.429.378h-5.496c-.191 0-.29-.128-.258-.289l.004-.011h-.004l.027-.11c.524-1.398 1.594-2.312 3.606-2.312 2.262 0 2.703 1.105 2.55 2.347zm-1.613-6.347c-7.054 0-8.73 4.285-9.668 8.61-.937 4.405-.855 8.523 6.446 8.523h1.156l.879-.004h.016c1.925-.008 3.863-.02 4.644-.028a.479.479 0 00.438-.359l.296-1.445.055-.282.356-1.722c.039-.2-.094-.36-.293-.36h-6.567c-2.613 0-3.386-.695-3.101-2.734h10.496-.004.008a.435.435 0 00.382-.27l.024-.093v.004c1.558-5.88 1.113-9.836-5.563-9.84zM33.84 88.832l-.102.352-.793 2.808-.789 2.809a.516.516 0 01-.468.355h-4.196c-3.18 0-3.953-2.492-3.18-6.16.774-3.754 2.293-6.086 5.426-6.324 4.278-.32 5.133 2.687 4.102 6.16zm2.875 6.106s1.98-4.801 2.426-7.575c.613-3.71-1.246-9.097-8.426-9.097-7.137 0-10.238 5.14-11.418 10.73-1.184 5.629.367 10.563 7.465 10.524l5.597-.02 5.235-.02c.199 0 .406-.16.457-.355l.914-3.477c.05-.195-.074-.355-.278-.359l-.87-.004-.876-.004c-.171-.004-.27-.113-.25-.261zm35.34-3.215c0 .132-.11.242-.243.242a.24.24 0 110-.48.24.24 0 01.243.238zm0 0" fill="#131b28"/></svg>