<svg xmlns="http://www.w3.org/2000/svg" width="82pt" height="82pt" viewBox="0 0 82 82"><path fill="#f7df1e" d="M0 0h82v82H0z"/><path d="M55.082 64.063c1.652 2.695 3.8 4.68 7.602 4.68 3.195 0 5.234-1.598 5.234-3.802 0-2.64-2.098-3.578-5.61-5.117L60.379 59c-5.558-2.371-9.253-5.336-9.253-11.61 0-5.78 4.406-10.18 11.285-10.18 4.899 0 8.422 1.708 10.961 6.169l-6 3.855c-1.32-2.37-2.746-3.304-4.96-3.304-2.259 0-3.688 1.433-3.688 3.304 0 2.309 1.433 3.246 4.738 4.68l1.926.824c6.547 2.809 10.246 5.668 10.246 12.106 0 6.937-5.453 10.738-12.77 10.738-7.156 0-11.781-3.41-14.043-7.883zm-27.219.667c1.211 2.149 2.313 3.965 4.957 3.965 2.535 0 4.13-.992 4.13-4.843v-26.2h7.706v26.305c0 7.977-4.68 11.61-11.508 11.61-6.168 0-9.742-3.192-11.558-7.04zm0 0"/></svg>