<svg xmlns="http://www.w3.org/2000/svg" width="110pt" height="83pt" viewBox="0 0 110 83"><path d="M94.66 47.703c-3.836.02-7.172.95-9.96 2.32-1.024-2.039-2.048-3.855-2.231-5.191-.2-1.555-.442-2.504-.2-4.363.243-1.86 1.325-4.504 1.305-4.707-.02-.2-.242-1.153-2.449-1.172-2.21-.02-4.117.426-4.336 1.012-.223.586-.644 1.918-.926 3.293-.383 2.02-4.418 9.23-6.726 13.007-.742-1.472-1.387-2.765-1.528-3.797-.199-1.554-.441-2.503-.199-4.363.242-1.86 1.324-4.504 1.305-4.707-.02-.203-.242-1.152-2.45-1.172-2.21-.02-4.117.426-4.34 1.012-.218.586-.46 1.957-.921 3.293-.461 1.332-5.824 13.371-7.23 16.484a97.36 97.36 0 01-1.786 3.739s-.02.058-.082.16a47.768 47.768 0 01-.601 1.152v.02c-.301.547-.621 1.05-.782 1.05-.12 0-.343-1.457.04-3.433.804-4.184 2.71-10.688 2.69-10.91 0-.121.36-1.254-1.245-1.84-1.567-.586-2.13.387-2.27.387-.14 0-.242.34-.242.34s1.75-7.313-3.332-7.313c-3.172 0-7.55 3.496-9.719 6.648-1.363.746-4.277 2.344-7.39 4.059a292.797 292.797 0 01-3.551 1.96c-.082-.081-.164-.183-.242-.26C19.117 47.804 7.75 43.136 8.234 34.27c.18-3.235 1.286-11.72 21.825-22.024 16.91-8.383 30.363-6.059 32.691-.906 3.336 7.351-7.207 21.008-24.676 22.988-6.668.746-10.164-1.84-11.047-2.808-.922-1.008-1.062-1.07-1.406-.868-.562.301-.2 1.211 0 1.739.524 1.37 2.672 3.797 6.305 4.988 3.215 1.05 11.027 1.637 20.484-2.04 10.582-4.12 18.856-15.577 16.426-25.171C66.406.43 50.34-2.782 35.14 2.652c-9.036 3.23-18.836 8.325-25.883 14.95C.883 25.48-.442 32.328.102 35.195c1.945 10.184 15.902 16.809 21.484 21.72-.281.16-.543.304-.762.425-2.793 1.39-13.433 6.988-16.086 12.906-3.011 6.707.485 11.516 2.793 12.164 7.168 2 14.535-1.597 18.492-7.535 3.957-5.941 3.473-13.656 1.649-17.191a.391.391 0 00-.082-.121c.723-.426 1.465-.872 2.187-1.293a103.71 103.71 0 014.04-2.286c-.684 1.88-1.188 4.121-1.426 7.356-.301 3.797 1.242 8.726 3.273 10.664.902.851 1.965.871 2.648.871 2.372 0 3.434-1.98 4.622-4.324 1.445-2.867 2.75-6.203 2.75-6.203s-1.63 9.011 2.789 9.011c1.609 0 3.234-2.101 3.957-3.171v.019s.039-.062.12-.203c.16-.262.263-.422.263-.422v-.043c.64-1.129 2.085-3.695 4.234-7.957 2.773-5.496 5.441-12.363 5.441-12.363s.242 1.676 1.067 4.465c.48 1.632 1.484 3.433 2.289 5.171-.645.907-1.043 1.415-1.043 1.415l.02.02c-.524.687-1.087 1.433-1.708 2.16-2.191 2.624-4.8 5.636-5.16 6.503-.422 1.031-.324 1.777.48 2.387.583.441 1.626.504 2.692.441 1.969-.14 3.352-.625 4.035-.926 1.067-.386 2.309-.972 3.473-1.84 2.148-1.597 3.457-3.878 3.336-6.89-.063-1.656-.602-3.313-1.266-4.867.2-.281.383-.567.582-.848 3.395-4.992 6.024-10.465 6.024-10.465s.242 1.676 1.066 4.465c.398 1.414 1.223 2.95 1.945 4.445-3.191 2.606-5.16 5.633-5.863 7.614-1.266 3.676-.281 5.336 1.586 5.718.844.18 2.05-.222 2.934-.605a13.32 13.32 0 003.714-1.922c2.149-1.594 4.215-3.816 4.098-6.828-.062-1.371-.422-2.727-.926-4.039 2.711-1.133 6.203-1.758 10.664-1.23 9.559 1.128 11.446 7.128 11.082 9.656-.359 2.523-2.367 3.898-3.03 4.32-.665.426-.884.566-.825.871.082.445.402.422.965.344.785-.145 5.02-2.043 5.199-6.688.305-5.941-5.32-12.425-15.258-12.363zM20.922 72.711c-3.172 3.477-7.59 4.789-9.496 3.68-2.047-1.196-1.246-6.325 2.652-10 2.367-2.246 5.418-4.325 7.45-5.598.46-.281 1.144-.688 1.964-1.191.14-.082.223-.122.223-.122l.48-.304c1.426 5.254.063 9.879-3.273 13.535zm23.094-15.797c-1.106 2.707-3.414 9.637-4.82 9.254-1.204-.324-1.946-5.578-.239-10.77.863-2.605 2.691-5.714 3.754-6.93 1.727-1.937 3.633-2.585 4.098-1.796.582 1.031-2.11 8.547-2.793 10.242zm19.058 9.172c-.465.242-.906.402-1.105.281-.14-.078.199-.402.199-.402s2.39-2.586 3.336-3.758c.539-.687 1.183-1.496 1.867-2.402v.261c0 3.09-2.973 5.172-4.297 6.02zM77.77 62.71c-.34-.242-.282-1.05.863-3.574.445-.992 1.488-2.649 3.273-4.242.203.644.344 1.273.324 1.859-.023 3.898-2.793 5.351-4.46 5.957zm0 0" fill="#cd6799"/></svg>